<svg xmlns="http://www.w3.org/2000/svg" width="512" height="512" viewBox="0 0 512 512">
  <defs>
    <linearGradient id="bg" x1="0" y1="0" x2="0.5" y2="1">
      <stop offset="0" stop-color="#8b7cf4"/>
      <stop offset="1" stop-color="#6250e0"/>
    </linearGradient>
  </defs>
  <rect width="512" height="512" fill="url(#bg)"/>
  <svg x="168.5" y="72.5" width="175" height="175" viewBox="0 0 24 24" fill="#191722">
    <ellipse cx="6" cy="9.2" rx="1.9" ry="1.9"/>
    <ellipse cx="9.6" cy="6.4" rx="2" ry="2"/>
    <ellipse cx="14.4" cy="6.4" rx="2" ry="2"/>
    <ellipse cx="18" cy="9.2" rx="1.9" ry="1.9"/>
    <path d="M12 10.6c3.7 0 5.7 2.3 5.7 4.9 0 2.1-1.8 3.5-3.6 2.8-.7-.3-1.4-.5-2.1-.5s-1.4.2-2.1.5c-1.8.7-3.6-.7-3.6-2.8 0-2.6 2-4.9 5.7-4.9Z"/>
  </svg>
  <svg x="47" y="290" width="418" height="222" viewBox="0 0 64 34">
    <path d="M8 27 L11.3 10 Q11.5 5.5 16 7.8 L30 17 Z" fill="#191722"/>
    <path d="M56 27 L52.7 10 Q52.5 5.5 48 7.8 L34 17 Z" fill="#191722"/>
    <path d="M6 34 A26 22 0 0 1 58 34 Z" fill="#191722"/>
    <circle cx="23" cy="26" r="6.5" fill="#ffd43b"/><circle cx="23.2" cy="26.6" r="5" fill="#191722"/><circle cx="20.6" cy="23.8" r="2.5" fill="#fff"/>
    <circle cx="41" cy="26" r="6.5" fill="#ffd43b"/><circle cx="41.2" cy="26.6" r="5" fill="#191722"/><circle cx="38.6" cy="23.8" r="2.5" fill="#fff"/>
  </svg>
</svg>
