<svg xmlns="http://www.w3.org/2000/svg" viewBox="0 0 48 48">
  <rect width="48" height="48" fill="#111111"/>
  <path fill="#ffffff" d="M31.6 25.7c0-3.4 2.8-5 2.9-5.1-1.6-2.3-4-2.6-4.9-2.7-2.1-.2-4 1.2-5.1 1.2-1 0-2.7-1.2-4.4-1.1-2.3 0-4.4 1.3-5.5 3.4-2.4 4.1-.6 10.2 1.7 13.5 1.1 1.6 2.4 3.4 4.2 3.3 1.7-.1 2.3-1.1 4.3-1.1s2.6 1.1 4.4 1c1.8 0 3-1.6 4.1-3.2.5-.8.9-1.6 1.2-2.4-3-.9-3.1-4.9-3.1-4.5z"/>
  <path fill="#ffffff" d="M28.6 15.5c.9-1.1 1.5-2.6 1.3-4.1-1.3.1-2.9.9-3.8 2-.8.9-1.6 2.5-1.4 3.9 1.5.1 3-.7 3.9-1.8z"/>
</svg>
