<svg xmlns="http://www.w3.org/2000/svg" width="128" height="128" viewBox="0 0 128 128" fill="none">
  <defs>
    <linearGradient id="apCase" x1="64" y1="34" x2="64" y2="76" gradientUnits="userSpaceOnUse">
      <stop offset="0" stop-color="#E8ECF1"></stop><stop offset="1" stop-color="#C3CAD4"></stop>
    </linearGradient>
    <linearGradient id="apBudDark" x1="0" y1="0" x2="0" y2="1">
      <stop offset="0" stop-color="#E4E8EE"></stop><stop offset="1" stop-color="#C0C8D2"></stop>
    </linearGradient>
    <linearGradient id="apStemDark" x1="0" y1="0" x2="1" y2="0">
      <stop offset="0" stop-color="#DDE2E9"></stop><stop offset="1" stop-color="#B7BFC9"></stop>
    </linearGradient>
    <linearGradient id="apBud" x1="0" y1="0" x2="0" y2="1">
      <stop offset="0" stop-color="#FFFFFF"></stop><stop offset="1" stop-color="#DFE5EC"></stop>
    </linearGradient>
    <linearGradient id="apStem" x1="0" y1="0" x2="1" y2="0">
      <stop offset="0" stop-color="#FFFFFF"></stop><stop offset="1" stop-color="#D6DCE4"></stop>
    </linearGradient>
    <filter id="apBlur" x="-60%" y="-60%" width="220%" height="220%"><feGaussianBlur stdDeviation="1"></feGaussianBlur></filter>
  </defs>
  <rect x="36" y="33" width="56" height="43" rx="14" fill="url(#apCase)" stroke="#E3E8EF" stroke-width="0.6"></rect>
  <line x1="41" y1="45" x2="87" y2="45" stroke="#D3DAE2" stroke-width="1.2"></line>
  <circle cx="64" cy="65" r="2.2" fill="#6FC0F0"></circle>
  <ellipse cx="52" cy="40" rx="6" ry="3" fill="#FFFFFF" fill-opacity="0.7" filter="url(#apBlur)"></ellipse>
  <g transform="rotate(12 80 68)">
    <path d="M76.7 66 L76.7 79 C76.7 81.8 78.2 83.2 80 83.2 C81.8 83.2 83.3 81.8 83.3 79 L83.3 66 Z" fill="url(#apStemDark)"></path>
    <ellipse cx="80" cy="60" rx="11" ry="10" fill="url(#apBudDark)"></ellipse>
    <ellipse cx="80" cy="60" rx="6.2" ry="5.3" fill="#BAC3CE"></ellipse>
    <ellipse cx="80" cy="59.5" rx="3.3" ry="2.6" fill="#9FA9B6"></ellipse>
    <circle cx="80" cy="73" r="1.3" fill="#AAB3BF"></circle>
    <ellipse cx="75.5" cy="55.5" rx="2.7" ry="1.8" fill="#FFFFFF" fill-opacity="0.55" filter="url(#apBlur)"></ellipse>
  </g>
  <g transform="translate(-2 -7) rotate(-12 48 70) translate(48 70) scale(1.68) translate(-48 -70)">
    <path d="M44.7 67 L44.7 81 C44.7 83.8 46.2 85.2 48 85.2 C49.8 85.2 51.3 83.8 51.3 81 L51.3 67 Z" fill="url(#apStem)"></path>
    <ellipse cx="48" cy="61" rx="12" ry="11" fill="url(#apBud)"></ellipse>
    <ellipse cx="48" cy="61" rx="6.8" ry="5.8" fill="#CDD5DE"></ellipse>
    <ellipse cx="48" cy="60.5" rx="3.6" ry="2.9" fill="#B2BCC7"></ellipse>
    <circle cx="48" cy="74" r="1.3" fill="#C4CCD5"></circle>
    <ellipse cx="43" cy="56" rx="3" ry="2" fill="#FFFFFF" fill-opacity="0.8" filter="url(#apBlur)"></ellipse>
  </g>
</svg>