<svg xmlns="http://www.w3.org/2000/svg" width="128" height="128" viewBox="0 0 128 128" fill="none">
  <defs>
    <linearGradient id="crSilver" x1="64" y1="56" x2="64" y2="104" gradientUnits="userSpaceOnUse">
      <stop offset="0" stop-color="#EEF2F7"></stop><stop offset="1" stop-color="#9BA8B8"></stop>
    </linearGradient>
  </defs>
  <ellipse cx="64" cy="80" rx="24" ry="19.5" stroke="url(#crSilver)" stroke-width="9"></ellipse>
  <path d="M 44 88 A 24 19.5 0 0 0 84 88" stroke="#6E7C8C" stroke-width="3" stroke-opacity="0.45" stroke-linecap="round"></path>
  <path d="M 47 67 A 24 19.5 0 0 1 81 67" stroke="#FFFFFF" stroke-width="2.5" stroke-opacity="0.9" stroke-linecap="round"></path>
  <circle cx="49" cy="54" r="3" fill="#AEB9C6"></circle>
  <circle cx="79" cy="54" r="3" fill="#AEB9C6"></circle>
  <path d="M48 53 L54 41 L74 41 L80 53 L64 70 Z" fill="#A6D0F0"></path>
  <polygon points="56,41 72,41 68,49 60,49" fill="#E6F4FF"></polygon>
  <polygon points="48,53 64,53 64,70" fill="#C2E2F8"></polygon>
  <polygon points="64,53 80,53 64,70" fill="#85BCE8"></polygon>
  <line x1="48" y1="53" x2="80" y2="53" stroke="#FFFFFF" stroke-opacity="0.6" stroke-width="1.2"></line>
  <path d="M86 20 L87.6 24.9 L92.5 26.5 L87.6 28.1 L86 33 L84.4 28.1 L79.5 26.5 L84.4 24.9 Z" fill="#DCE6F0"></path>
  <circle cx="78" cy="16.5" r="1.7" fill="#EAF1F8"></circle>
</svg>