<svg xmlns="http://www.w3.org/2000/svg" width="128" height="128" viewBox="0 0 128 128" fill="none">
  <defs>
    <linearGradient id="crGold" x1="64" y1="56" x2="64" y2="104" gradientUnits="userSpaceOnUse">
      <stop offset="0" stop-color="#F8D878"></stop><stop offset="1" stop-color="#C0801C"></stop>
    </linearGradient>
  </defs>
  <ellipse cx="64" cy="80" rx="24" ry="19.5" stroke="url(#crGold)" stroke-width="9"></ellipse>
  <path d="M 44 88 A 24 19.5 0 0 0 84 88" stroke="#9C6510" stroke-width="3" stroke-opacity="0.45" stroke-linecap="round"></path>
  <path d="M 47 67 A 24 19.5 0 0 1 81 67" stroke="#FFE9A8" stroke-width="2.5" stroke-opacity="0.85" stroke-linecap="round"></path>
  <circle cx="49" cy="45" r="3" fill="#E0A93A"></circle>
  <circle cx="79" cy="45" r="3" fill="#E0A93A"></circle>
  <path d="M48 44 L54 32 L74 32 L80 44 L64 61 Z" fill="#A6D0F0"></path>
  <polygon points="56,32 72,32 68,40 60,40" fill="#E6F4FF"></polygon>
  <polygon points="48,44 64,44 64,61" fill="#C2E2F8"></polygon>
  <polygon points="64,44 80,44 64,61" fill="#85BCE8"></polygon>
  <line x1="48" y1="44" x2="80" y2="44" stroke="#FFFFFF" stroke-opacity="0.6" stroke-width="1.2"></line>
  <path d="M86 19.5 L87.6 24.4 L92.5 26 L87.6 27.6 L86 32.5 L84.4 27.6 L79.5 26 L84.4 24.4 Z" fill="#BFE1FA"></path>
  <circle cx="78" cy="16" r="1.7" fill="#CBE7FF"></circle>
</svg>