<svg xmlns="http://www.w3.org/2000/svg" width="128" height="128" viewBox="0 0 128 128" fill="none">
  <defs>
    <linearGradient id="erBody" x1="64" y1="50" x2="64" y2="90" gradientUnits="userSpaceOnUse">
      <stop offset="0" stop-color="#FFF3F6"></stop><stop offset="1" stop-color="#F2C7D3"></stop>
    </linearGradient>
    <linearGradient id="erSleeve" x1="45" y1="46" x2="45" y2="90" gradientUnits="userSpaceOnUse">
      <stop offset="0" stop-color="#5F92DB"></stop><stop offset="1" stop-color="#3D6BB5"></stop>
    </linearGradient>
    <filter id="erBlur" x="-60%" y="-60%" width="220%" height="220%"><feGaussianBlur stdDeviation="1.3"></feGaussianBlur></filter>
  </defs>
  <g transform="rotate(-7 64 64)">
    <polygon points="98,55 109,41 111,41 111,79 98,88" fill="#EBBEC9"></polygon>
    <polygon points="25,55 34,41 111,41 100,55" fill="#FFF7F9"></polygon>
    <rect x="26" y="50" width="74" height="36" rx="6" fill="url(#erBody)"></rect>
    <rect x="66" y="50" width="6" height="36" fill="#000000" fill-opacity="0.05" filter="url(#erBlur)"></rect>
    <line x1="76" y1="54.5" x2="96" y2="54.5" stroke="#FFFFFF" stroke-opacity="0.7" stroke-width="3" stroke-linecap="round"></line>
    <polygon points="24,48 33,39 87,39 78,48" fill="#7EA8E3"></polygon>
    <rect x="24" y="48" width="54" height="38" fill="url(#erSleeve)"></rect>
    <rect x="33" y="60" width="31" height="16" rx="3" fill="#FFFFFF"></rect>
    <line x1="39" y1="65.5" x2="58" y2="65.5" stroke="#9FB6D9" stroke-width="2" stroke-linecap="round"></line>
    <line x1="39" y1="70.5" x2="52" y2="70.5" stroke="#9FB6D9" stroke-width="2" stroke-linecap="round"></line>
    <circle cx="100" cy="93" r="2" fill="#E7BDC8"></circle>
    <circle cx="108" cy="88" r="1.4" fill="#E7BDC8"></circle>
  </g>
</svg>