<svg xmlns="http://www.w3.org/2000/svg" width="128" height="128" viewBox="0 0 128 128" fill="none">
  <defs>
    <linearGradient id="frSil" x1="24" y1="36" x2="104" y2="96" gradientUnits="userSpaceOnUse">
      <stop offset="0" stop-color="#F3F6FA"></stop><stop offset="0.55" stop-color="#D5DCE5"></stop><stop offset="1" stop-color="#A9B4C2"></stop>
    </linearGradient>
    <filter id="frBlur" x="-60%" y="-60%" width="220%" height="220%"><feGaussianBlur stdDeviation="2"></feGaussianBlur></filter>
  </defs>
  <circle cx="46" cy="58" r="22" stroke="url(#frSil)" stroke-width="10"></circle>
  <ellipse cx="63" cy="61" rx="10" ry="8" fill="#3F4855" fill-opacity="0.20" filter="url(#frBlur)"></ellipse>
  <circle cx="82" cy="68" r="22" stroke="url(#frSil)" stroke-width="10"></circle>
  <path d="M 30 50 A 22 22 0 0 1 42 37" stroke="#FFFFFF" stroke-width="3" stroke-opacity="0.8" stroke-linecap="round"></path>
  <path d="M 66 60 A 22 22 0 0 1 78 47" stroke="#FFFFFF" stroke-width="3" stroke-opacity="0.8" stroke-linecap="round"></path>
  <polygon transform="translate(46 80) scale(0.5)" points="0,-8 1.88,-2.59 7.61,-2.47 3.04,0.99 4.7,6.47 0,3.2 -4.7,6.47 -3.04,0.99 -7.61,-2.47 -1.88,-2.59" fill="#6E7A88"></polygon>
  <polygon transform="translate(82 90) scale(0.5)" points="0,-8 1.88,-2.59 7.61,-2.47 3.04,0.99 4.7,6.47 0,3.2 -4.7,6.47 -3.04,0.99 -7.61,-2.47 -1.88,-2.59" fill="#6E7A88"></polygon>
</svg>