<svg xmlns="http://www.w3.org/2000/svg" width="128" height="128" viewBox="0 0 128 128" fill="none">
  <defs><filter id="ledGlow" x="-50%" y="-50%" width="200%" height="200%"><feGaussianBlur stdDeviation="3"></feGaussianBlur></filter></defs>
  <rect x="9" y="9" width="110" height="110" rx="18" fill="#31353D"></rect>
  <rect x="11" y="11" width="106" height="106" rx="16" fill="#1B1E23"></rect>
  <rect x="16" y="16" width="96" height="96" rx="11" fill="#101216"></rect>
  <g filter="url(#ledGlow)" opacity="0.75"><circle cx="32.00" cy="32.00" r="6.48" fill="#FF4F7E"></circle><circle cx="42.67" cy="32.00" r="6.48" fill="#FF4F7E"></circle><circle cx="85.33" cy="32.00" r="6.48" fill="#FF4F7E"></circle><circle cx="96.00" cy="32.00" r="6.48" fill="#FF4F7E"></circle><circle cx="21.33" cy="42.67" r="6.48" fill="#FF4F7E"></circle><circle cx="32.00" cy="42.67" r="6.48" fill="#FF4F7E"></circle><circle cx="42.67" cy="42.67" r="6.48" fill="#FF4F7E"></circle><circle cx="53.33" cy="42.67" r="6.48" fill="#FF4F7E"></circle><circle cx="74.67" cy="42.67" r="6.48" fill="#FF4F7E"></circle><circle cx="85.33" cy="42.67" r="6.48" fill="#FF4F7E"></circle><circle cx="96.00" cy="42.67" r="6.48" fill="#FF4F7E"></circle><circle cx="106.67" cy="42.67" r="6.48" fill="#FF4F7E"></circle><circle cx="21.33" cy="53.33" r="6.48" fill="#FF4F7E"></circle><circle cx="32.00" cy="53.33" r="6.48" fill="#FF4F7E"></circle><circle cx="42.67" cy="53.33" r="6.48" fill="#FF4F7E"></circle><circle cx="53.33" cy="53.33" r="6.48" fill="#FF4F7E"></circle><circle cx="64.00" cy="53.33" r="6.48" fill="#FF4F7E"></circle><circle cx="74.67" cy="53.33" r="6.48" fill="#FF4F7E"></circle><circle cx="85.33" cy="53.33" r="6.48" fill="#FF4F7E"></circle><circle cx="96.00" cy="53.33" r="6.48" fill="#FF4F7E"></circle><circle cx="106.67" cy="53.33" r="6.48" fill="#FF4F7E"></circle><circle cx="21.33" cy="64.00" r="6.48" fill="#FF4F7E"></circle><circle cx="32.00" cy="64.00" r="6.48" fill="#FF4F7E"></circle><circle cx="42.67" cy="64.00" r="6.48" fill="#FF4F7E"></circle><circle cx="53.33" cy="64.00" r="6.48" fill="#FF4F7E"></circle><circle cx="64.00" cy="64.00" r="6.48" fill="#FF4F7E"></circle><circle cx="74.67" cy="64.00" r="6.48" fill="#FF4F7E"></circle><circle cx="85.33" cy="64.00" r="6.48" fill="#FF4F7E"></circle><circle cx="96.00" cy="64.00" r="6.48" fill="#FF4F7E"></circle><circle cx="106.67" cy="64.00" r="6.48" fill="#FF4F7E"></circle><circle cx="32.00" cy="74.67" r="6.48" fill="#FF4F7E"></circle><circle cx="42.67" cy="74.67" r="6.48" fill="#FF4F7E"></circle><circle cx="53.33" cy="74.67" r="6.48" fill="#FF4F7E"></circle><circle cx="64.00" cy="74.67" r="6.48" fill="#FF4F7E"></circle><circle cx="74.67" cy="74.67" r="6.48" fill="#FF4F7E"></circle><circle cx="85.33" cy="74.67" r="6.48" fill="#FF4F7E"></circle><circle cx="96.00" cy="74.67" r="6.48" fill="#FF4F7E"></circle><circle cx="42.67" cy="85.33" r="6.48" fill="#FF4F7E"></circle><circle cx="53.33" cy="85.33" r="6.48" fill="#FF4F7E"></circle><circle cx="64.00" cy="85.33" r="6.48" fill="#FF4F7E"></circle><circle cx="74.67" cy="85.33" r="6.48" fill="#FF4F7E"></circle><circle cx="85.33" cy="85.33" r="6.48" fill="#FF4F7E"></circle><circle cx="53.33" cy="96.00" r="6.48" fill="#FF4F7E"></circle><circle cx="64.00" cy="96.00" r="6.48" fill="#FF4F7E"></circle><circle cx="74.67" cy="96.00" r="6.48" fill="#FF4F7E"></circle><circle cx="64.00" cy="106.67" r="6.48" fill="#FF4F7E"></circle></g>
  <circle cx="21.33" cy="21.33" r="3.5" fill="#363B45"></circle><circle cx="32.00" cy="21.33" r="3.5" fill="#363B45"></circle><circle cx="42.67" cy="21.33" r="3.5" fill="#363B45"></circle><circle cx="53.33" cy="21.33" r="3.5" fill="#363B45"></circle><circle cx="64.00" cy="21.33" r="3.5" fill="#363B45"></circle><circle cx="74.67" cy="21.33" r="3.5" fill="#363B45"></circle><circle cx="85.33" cy="21.33" r="3.5" fill="#363B45"></circle><circle cx="96.00" cy="21.33" r="3.5" fill="#363B45"></circle><circle cx="106.67" cy="21.33" r="3.5" fill="#363B45"></circle><circle cx="21.33" cy="32.00" r="3.5" fill="#363B45"></circle><circle cx="32.00" cy="32.00" r="3.5" fill="#FF6E92"></circle><circle cx="30.88" cy="30.88" r="1.47" fill="#FFC4D5"></circle><circle cx="42.67" cy="32.00" r="3.5" fill="#FF6E92"></circle><circle cx="41.55" cy="30.88" r="1.47" fill="#FFC4D5"></circle><circle cx="53.33" cy="32.00" r="3.5" fill="#363B45"></circle><circle cx="64.00" cy="32.00" r="3.5" fill="#363B45"></circle><circle cx="74.67" cy="32.00" r="3.5" fill="#363B45"></circle><circle cx="85.33" cy="32.00" r="3.5" fill="#FF6E92"></circle><circle cx="84.21" cy="30.88" r="1.47" fill="#FFC4D5"></circle><circle cx="96.00" cy="32.00" r="3.5" fill="#FF6E92"></circle><circle cx="94.88" cy="30.88" r="1.47" fill="#FFC4D5"></circle><circle cx="106.67" cy="32.00" r="3.5" fill="#363B45"></circle><circle cx="21.33" cy="42.67" r="3.5" fill="#FF6E92"></circle><circle cx="20.21" cy="41.55" r="1.47" fill="#FFC4D5"></circle><circle cx="32.00" cy="42.67" r="3.5" fill="#FF6E92"></circle><circle cx="30.88" cy="41.55" r="1.47" fill="#FFC4D5"></circle><circle cx="42.67" cy="42.67" r="3.5" fill="#FF6E92"></circle><circle cx="41.55" cy="41.55" r="1.47" fill="#FFC4D5"></circle><circle cx="53.33" cy="42.67" r="3.5" fill="#FF6E92"></circle><circle cx="52.21" cy="41.55" r="1.47" fill="#FFC4D5"></circle><circle cx="64.00" cy="42.67" r="3.5" fill="#363B45"></circle><circle cx="74.67" cy="42.67" r="3.5" fill="#FF6E92"></circle><circle cx="73.55" cy="41.55" r="1.47" fill="#FFC4D5"></circle><circle cx="85.33" cy="42.67" r="3.5" fill="#FF6E92"></circle><circle cx="84.21" cy="41.55" r="1.47" fill="#FFC4D5"></circle><circle cx="96.00" cy="42.67" r="3.5" fill="#FF6E92"></circle><circle cx="94.88" cy="41.55" r="1.47" fill="#FFC4D5"></circle><circle cx="106.67" cy="42.67" r="3.5" fill="#FF6E92"></circle><circle cx="105.55" cy="41.55" r="1.47" fill="#FFC4D5"></circle><circle cx="21.33" cy="53.33" r="3.5" fill="#FF6E92"></circle><circle cx="20.21" cy="52.21" r="1.47" fill="#FFC4D5"></circle><circle cx="32.00" cy="53.33" r="3.5" fill="#FF6E92"></circle><circle cx="30.88" cy="52.21" r="1.47" fill="#FFC4D5"></circle><circle cx="42.67" cy="53.33" r="3.5" fill="#FF6E92"></circle><circle cx="41.55" cy="52.21" r="1.47" fill="#FFC4D5"></circle><circle cx="53.33" cy="53.33" r="3.5" fill="#FF6E92"></circle><circle cx="52.21" cy="52.21" r="1.47" fill="#FFC4D5"></circle><circle cx="64.00" cy="53.33" r="3.5" fill="#FF6E92"></circle><circle cx="62.88" cy="52.21" r="1.47" fill="#FFC4D5"></circle><circle cx="74.67" cy="53.33" r="3.5" fill="#FF6E92"></circle><circle cx="73.55" cy="52.21" r="1.47" fill="#FFC4D5"></circle><circle cx="85.33" cy="53.33" r="3.5" fill="#FF6E92"></circle><circle cx="84.21" cy="52.21" r="1.47" fill="#FFC4D5"></circle><circle cx="96.00" cy="53.33" r="3.5" fill="#FF6E92"></circle><circle cx="94.88" cy="52.21" r="1.47" fill="#FFC4D5"></circle><circle cx="106.67" cy="53.33" r="3.5" fill="#FF6E92"></circle><circle cx="105.55" cy="52.21" r="1.47" fill="#FFC4D5"></circle><circle cx="21.33" cy="64.00" r="3.5" fill="#FF6E92"></circle><circle cx="20.21" cy="62.88" r="1.47" fill="#FFC4D5"></circle><circle cx="32.00" cy="64.00" r="3.5" fill="#FF6E92"></circle><circle cx="30.88" cy="62.88" r="1.47" fill="#FFC4D5"></circle><circle cx="42.67" cy="64.00" r="3.5" fill="#FF6E92"></circle><circle cx="41.55" cy="62.88" r="1.47" fill="#FFC4D5"></circle><circle cx="53.33" cy="64.00" r="3.5" fill="#FF6E92"></circle><circle cx="52.21" cy="62.88" r="1.47" fill="#FFC4D5"></circle><circle cx="64.00" cy="64.00" r="3.5" fill="#FF6E92"></circle><circle cx="62.88" cy="62.88" r="1.47" fill="#FFC4D5"></circle><circle cx="74.67" cy="64.00" r="3.5" fill="#FF6E92"></circle><circle cx="73.55" cy="62.88" r="1.47" fill="#FFC4D5"></circle><circle cx="85.33" cy="64.00" r="3.5" fill="#FF6E92"></circle><circle cx="84.21" cy="62.88" r="1.47" fill="#FFC4D5"></circle><circle cx="96.00" cy="64.00" r="3.5" fill="#FF6E92"></circle><circle cx="94.88" cy="62.88" r="1.47" fill="#FFC4D5"></circle><circle cx="106.67" cy="64.00" r="3.5" fill="#FF6E92"></circle><circle cx="105.55" cy="62.88" r="1.47" fill="#FFC4D5"></circle><circle cx="21.33" cy="74.67" r="3.5" fill="#363B45"></circle><circle cx="32.00" cy="74.67" r="3.5" fill="#FF6E92"></circle><circle cx="30.88" cy="73.55" r="1.47" fill="#FFC4D5"></circle><circle cx="42.67" cy="74.67" r="3.5" fill="#FF6E92"></circle><circle cx="41.55" cy="73.55" r="1.47" fill="#FFC4D5"></circle><circle cx="53.33" cy="74.67" r="3.5" fill="#FF6E92"></circle><circle cx="52.21" cy="73.55" r="1.47" fill="#FFC4D5"></circle><circle cx="64.00" cy="74.67" r="3.5" fill="#FF6E92"></circle><circle cx="62.88" cy="73.55" r="1.47" fill="#FFC4D5"></circle><circle cx="74.67" cy="74.67" r="3.5" fill="#FF6E92"></circle><circle cx="73.55" cy="73.55" r="1.47" fill="#FFC4D5"></circle><circle cx="85.33" cy="74.67" r="3.5" fill="#FF6E92"></circle><circle cx="84.21" cy="73.55" r="1.47" fill="#FFC4D5"></circle><circle cx="96.00" cy="74.67" r="3.5" fill="#FF6E92"></circle><circle cx="94.88" cy="73.55" r="1.47" fill="#FFC4D5"></circle><circle cx="106.67" cy="74.67" r="3.5" fill="#363B45"></circle><circle cx="21.33" cy="85.33" r="3.5" fill="#363B45"></circle><circle cx="32.00" cy="85.33" r="3.5" fill="#363B45"></circle><circle cx="42.67" cy="85.33" r="3.5" fill="#FF6E92"></circle><circle cx="41.55" cy="84.21" r="1.47" fill="#FFC4D5"></circle><circle cx="53.33" cy="85.33" r="3.5" fill="#FF6E92"></circle><circle cx="52.21" cy="84.21" r="1.47" fill="#FFC4D5"></circle><circle cx="64.00" cy="85.33" r="3.5" fill="#FF6E92"></circle><circle cx="62.88" cy="84.21" r="1.47" fill="#FFC4D5"></circle><circle cx="74.67" cy="85.33" r="3.5" fill="#FF6E92"></circle><circle cx="73.55" cy="84.21" r="1.47" fill="#FFC4D5"></circle><circle cx="85.33" cy="85.33" r="3.5" fill="#FF6E92"></circle><circle cx="84.21" cy="84.21" r="1.47" fill="#FFC4D5"></circle><circle cx="96.00" cy="85.33" r="3.5" fill="#363B45"></circle><circle cx="106.67" cy="85.33" r="3.5" fill="#363B45"></circle><circle cx="21.33" cy="96.00" r="3.5" fill="#363B45"></circle><circle cx="32.00" cy="96.00" r="3.5" fill="#363B45"></circle><circle cx="42.67" cy="96.00" r="3.5" fill="#363B45"></circle><circle cx="53.33" cy="96.00" r="3.5" fill="#FF6E92"></circle><circle cx="52.21" cy="94.88" r="1.47" fill="#FFC4D5"></circle><circle cx="64.00" cy="96.00" r="3.5" fill="#FF6E92"></circle><circle cx="62.88" cy="94.88" r="1.47" fill="#FFC4D5"></circle><circle cx="74.67" cy="96.00" r="3.5" fill="#FF6E92"></circle><circle cx="73.55" cy="94.88" r="1.47" fill="#FFC4D5"></circle><circle cx="85.33" cy="96.00" r="3.5" fill="#363B45"></circle><circle cx="96.00" cy="96.00" r="3.5" fill="#363B45"></circle><circle cx="106.67" cy="96.00" r="3.5" fill="#363B45"></circle><circle cx="21.33" cy="106.67" r="3.5" fill="#363B45"></circle><circle cx="32.00" cy="106.67" r="3.5" fill="#363B45"></circle><circle cx="42.67" cy="106.67" r="3.5" fill="#363B45"></circle><circle cx="53.33" cy="106.67" r="3.5" fill="#363B45"></circle><circle cx="64.00" cy="106.67" r="3.5" fill="#FF6E92"></circle><circle cx="62.88" cy="105.55" r="1.47" fill="#FFC4D5"></circle><circle cx="74.67" cy="106.67" r="3.5" fill="#363B45"></circle><circle cx="85.33" cy="106.67" r="3.5" fill="#363B45"></circle><circle cx="96.00" cy="106.67" r="3.5" fill="#363B45"></circle><circle cx="106.67" cy="106.67" r="3.5" fill="#363B45"></circle>
  <rect x="20" y="20" width="88" height="26" rx="9" fill="#FFFFFF" fill-opacity="0.04"></rect>
</svg>