<svg xmlns="http://www.w3.org/2000/svg" width="128" height="128" viewBox="0 0 128 128" fill="none">
  <defs>
    <linearGradient id="gbBox" x1="64" y1="58" x2="64" y2="104" gradientUnits="userSpaceOnUse">
      <stop offset="0" stop-color="#F29AB8"></stop><stop offset="1" stop-color="#D96C93"></stop>
    </linearGradient>
    <linearGradient id="gbLid" x1="64" y1="44" x2="64" y2="66" gradientUnits="userSpaceOnUse">
      <stop offset="0" stop-color="#FBB4CD"></stop><stop offset="1" stop-color="#EE8FB1"></stop>
    </linearGradient>
    <filter id="gbBlur" x="-60%" y="-60%" width="220%" height="220%"><feGaussianBlur stdDeviation="1.4"></feGaussianBlur></filter>
  </defs>
  <path d="M46 30 C36 22 24 30 30 40 C34 46 48 46 54 46 C54 40 54 35 46 30 Z" fill="#F7C948"></path>
  <path d="M82 30 C92 22 104 30 98 40 C94 46 80 46 74 46 C74 40 74 35 82 30 Z" fill="#F2B705"></path>
  <path d="M54 46 C54 38 60 34 64 34 C68 34 74 38 74 46 Z" fill="#FFD968"></path>
  <rect x="30" y="60" width="68" height="44" rx="6" fill="url(#gbBox)"></rect>
  <path d="M27 48 L101 48 L101 62 Q101 66 97 66 L31 66 Q27 66 27 62 Z" fill="url(#gbLid)"></path>
  <rect x="55" y="48" width="18" height="56" fill="#F7C948"></rect>
  <rect x="55" y="48" width="18" height="18" fill="#FFD968"></rect>
  <line x1="64" y1="48" x2="64" y2="104" stroke="#E0A93A" stroke-width="1.4" stroke-opacity="0.5"></line>
  <rect x="30" y="50" width="42" height="4" rx="2" fill="#FFFFFF" fill-opacity="0.4" filter="url(#gbBlur)"></rect>
  <rect x="34" y="98" width="60" height="4" rx="2" fill="#B4547A" fill-opacity="0.45" filter="url(#gbBlur)"></rect>
  <circle cx="46" cy="34" r="2" fill="#FFE59A"></circle>
  <path d="M96 24 L97.4 28 L101.4 29.4 L97.4 30.8 L96 34.8 L94.6 30.8 L90.6 29.4 L94.6 28 Z" fill="#FBD16B"></path>
</svg>