<svg xmlns="http://www.w3.org/2000/svg" width="128" height="128" viewBox="0 0 128 128" fill="none">
  <defs>
    <linearGradient id="bbFrame" x1="14" y1="38" x2="114" y2="112" gradientUnits="userSpaceOnUse">
      <stop offset="0" stop-color="#B98457"></stop><stop offset="0.5" stop-color="#96603A"></stop><stop offset="1" stop-color="#754529"></stop>
    </linearGradient>
    <linearGradient id="bbCork" x1="24" y1="46" x2="104" y2="106" gradientUnits="userSpaceOnUse">
      <stop offset="0" stop-color="#E8C48E"></stop><stop offset="1" stop-color="#CFA268"></stop>
    </linearGradient>
    <linearGradient id="bbCord" x1="0" y1="0" x2="0" y2="1" gradientUnits="objectBoundingBox">
      <stop offset="0" stop-color="#C8A46E"></stop><stop offset="1" stop-color="#9A7846"></stop>
    </linearGradient>
    <filter id="bbBlur" x="-60%" y="-60%" width="220%" height="220%"><feGaussianBlur stdDeviation="1.5"></feGaussianBlur></filter>
  </defs>
  <path d="M64 12 L26 40 M64 12 L102 40" stroke="url(#bbCord)" stroke-width="4.2" stroke-linecap="round" fill="none"></path>
  <circle cx="64" cy="12" r="4.6" fill="#8E9AAA"></circle>
  <circle cx="62.6" cy="10.6" r="1.6" fill="#D7DEE7"></circle>
  <rect x="12" y="36" width="104" height="78" rx="10" fill="url(#bbFrame)"></rect>
  <rect x="20" y="44" width="88" height="62" rx="5" fill="url(#bbCork)"></rect>
  <g fill="#B98E5C" fill-opacity="0.45">
    <circle cx="30" cy="56" r="1.7"></circle><circle cx="46" cy="50" r="1.3"></circle><circle cx="70" cy="54" r="1.5"></circle>
    <circle cx="96" cy="62" r="1.6"></circle><circle cx="34" cy="94" r="1.4"></circle><circle cx="62" cy="98" r="1.6"></circle>
    <circle cx="92" cy="92" r="1.3"></circle><circle cx="52" cy="74" r="1.2"></circle>
  </g>
  <g transform="rotate(-6 44 70)">
    <rect x="28" y="54" width="32" height="34" rx="2" fill="#FFFFFF"></rect>
    <rect x="28" y="54" width="32" height="34" rx="2" fill="#000000" fill-opacity="0.04"></rect>
    <rect x="33" y="61" width="22" height="2.6" rx="1.3" fill="#9AA3AE"></rect>
    <rect x="33" y="68" width="22" height="2.6" rx="1.3" fill="#C3CAD3"></rect>
    <rect x="33" y="75" width="14" height="2.6" rx="1.3" fill="#C3CAD3"></rect>
    <circle cx="44" cy="56.5" r="3.6" fill="#F2503C"></circle>
    <circle cx="42.8" cy="55.3" r="1.3" fill="#FF9A8C"></circle>
  </g>
  <g transform="rotate(5 84 72)">
    <rect x="70" y="58" width="30" height="30" rx="2" fill="#FFE9A8"></rect>
    <rect x="70" y="58" width="30" height="30" rx="2" fill="#000000" fill-opacity="0.03"></rect>
    <rect x="75" y="65" width="20" height="2.6" rx="1.3" fill="#D2AE55"></rect>
    <rect x="75" y="72" width="20" height="2.6" rx="1.3" fill="#E2C67C"></rect>
    <rect x="75" y="79" width="12" height="2.6" rx="1.3" fill="#E2C67C"></rect>
    <circle cx="85" cy="60.5" r="3.6" fill="#3B82D6"></circle>
    <circle cx="83.8" cy="59.3" r="1.3" fill="#8FBEF2"></circle>
  </g>
  <rect x="20" y="44" width="88" height="16" rx="5" fill="#FFFFFF" fill-opacity="0.16"></rect>
  <rect x="18" y="40" width="92" height="4" rx="2" fill="#FFFFFF" fill-opacity="0.22" filter="url(#bbBlur)"></rect>
</svg>