<svg xmlns="http://www.w3.org/2000/svg" width="128" height="128" viewBox="0 0 128 128" fill="none">
  <defs>
    <linearGradient id="vhsBody" x1="64" y1="34" x2="64" y2="96" gradientUnits="userSpaceOnUse">
      <stop offset="0" stop-color="#3A3F4B"></stop><stop offset="1" stop-color="#23262E"></stop>
    </linearGradient>
    <filter id="vhsBlur" x="-60%" y="-60%" width="220%" height="220%"><feGaussianBlur stdDeviation="1.3"></feGaussianBlur></filter>
  </defs>
  <g transform="rotate(-5 64 64)">
    <rect x="16" y="34" width="96" height="60" rx="7" fill="url(#vhsBody)"></rect>
    <rect x="16" y="34" width="96" height="10" rx="7" fill="#4A5060"></rect>
    <rect x="24" y="50" width="80" height="30" rx="4" fill="#F4F1E8"></rect>
    <rect x="24" y="50" width="80" height="9" rx="4" fill="#E0453B"></rect>
    <rect x="24" y="54.5" width="80" height="4.5" fill="#E0453B"></rect>
    <rect x="34" y="63" width="60" height="3" rx="1.5" fill="#C9C3B4"></rect>
    <rect x="34" y="69" width="44" height="3" rx="1.5" fill="#C9C3B4"></rect>
    <rect x="40" y="83" width="48" height="8" rx="3" fill="#12141A"></rect>
    <circle cx="52" cy="87" r="4.5" fill="#5A6070"></circle>
    <circle cx="76" cy="87" r="4.5" fill="#5A6070"></circle>
    <circle cx="52" cy="87" r="2" fill="#23262E"></circle>
    <circle cx="76" cy="87" r="2" fill="#23262E"></circle>
    <rect x="22" y="37" width="42" height="4" rx="2" fill="#FFFFFF" fill-opacity="0.35" filter="url(#vhsBlur)"></rect>
    <path d="M58 66 L58 76 L68 71 Z" fill="#E0453B"></path>
  </g>
</svg>
