<svg xmlns="http://www.w3.org/2000/svg" width="128" height="128" viewBox="0 0 128 128" fill="none">
  <defs>
    <linearGradient id="vhsBody" x1="64" y1="35" x2="64" y2="97" gradientUnits="userSpaceOnUse">
      <stop offset="0" stop-color="#FAB9D2"></stop><stop offset="1" stop-color="#E67AA8"></stop>
    </linearGradient>
    <filter id="vhsBlur" x="-60%" y="-60%" width="220%" height="220%"><feGaussianBlur stdDeviation="1.4"></feGaussianBlur></filter>
  </defs>
  <g transform="rotate(-4 64 64)">
    <rect x="17" y="35" width="94" height="62" rx="10" fill="url(#vhsBody)"></rect>
    <rect x="26" y="43" width="76" height="15" rx="3" fill="#FFF3F8"></rect>
    <line x1="32" y1="48" x2="82" y2="48" stroke="#F0A6C6" stroke-width="2.5" stroke-linecap="round"></line>
    <line x1="32" y1="53" x2="64" y2="53" stroke="#F0A6C6" stroke-width="2.5" stroke-linecap="round"></line>
    <rect x="30" y="65" width="68" height="27" rx="5" fill="#2E2833"></rect>
    <rect x="46" y="73" width="36" height="4" fill="#171319"></rect>
    <circle cx="46" cy="79" r="9" fill="#4A4450"></circle>
    <circle cx="82" cy="79" r="9" fill="#4A4450"></circle>
    <circle cx="46" cy="79" r="4" fill="#ECE7F1"></circle>
    <circle cx="82" cy="79" r="4" fill="#ECE7F1"></circle>
    <circle cx="46" cy="79" r="1.6" fill="#6D6675"></circle>
    <circle cx="82" cy="79" r="1.6" fill="#6D6675"></circle>
    <rect x="20" y="38" width="52" height="5" rx="2.5" fill="#FFFFFF" fill-opacity="0.32" filter="url(#vhsBlur)"></rect>
    <rect x="22" y="91" width="84" height="4" rx="2" fill="#B85484" fill-opacity="0.45" filter="url(#vhsBlur)"></rect>
  </g>
</svg>